<svg width="129" height="94" viewBox="0 0 129 94" fill="none" xmlns="http://www.w3.org/2000/svg">
<path d="M43.7594 93.3812C42.6427 93.3812 41.5958 93.2054 40.6188 92.8536C39.6417 92.5019 38.7344 91.91 37.8969 91.0781L2.30313 55.4844C0.767709 53.949 0 51.925 0 49.4125C0 46.9 0.767709 44.876 2.30313 43.3406C3.83854 41.8052 5.79271 41.0375 8.16563 41.0375C10.5385 41.0375 12.4927 41.8052 14.0281 43.3406L43.7594 73.0719L114.528 2.30312C116.064 0.767705 118.054 0 120.499 0C122.945 0 124.933 0.767705 126.462 2.30312C127.998 3.83854 128.766 5.829 128.766 8.2745C128.766 10.72 127.998 12.7077 126.462 14.2375L49.6219 91.0781C48.7844 91.9156 47.8771 92.5102 46.9 92.862C45.9229 93.2137 44.876 93.3868 43.7594 93.3812Z" fill="#12724F"/>
</svg>
