<svg width="45" height="44" viewBox="0 0 45 44" fill="none" xmlns="http://www.w3.org/2000/svg">
<path d="M39.6398 0.0859375H5.28443C4.04194 0.0859375 2.85034 0.579516 1.97176 1.45809C1.09319 2.33666 0.599609 3.52827 0.599609 4.77076L0.599609 39.1261C0.599609 40.3686 1.09319 41.5602 1.97176 42.4388C2.85034 43.3174 4.04194 43.8109 5.28443 43.8109H18.6801V28.9454H12.5313V21.9484H18.6801V16.6155C18.6801 10.5497 22.2913 7.19906 27.8223 7.19906C30.4712 7.19906 33.2411 7.67144 33.2411 7.67144V13.6251H30.1891C27.1821 13.6251 26.2441 15.4912 26.2441 17.4051V21.9484H32.9571L31.8835 28.9454H26.2441V43.8109H39.6398C40.8823 43.8109 42.0739 43.3174 42.9525 42.4388C43.831 41.5602 44.3246 40.3686 44.3246 39.1261V4.77076C44.3246 3.52827 43.831 2.33666 42.9525 1.45809C42.0739 0.579516 40.8823 0.0859375 39.6398 0.0859375Z" fill="white"/>
</svg>
