<svg width="167" height="85" viewBox="0 0 167 85" fill="none" xmlns="http://www.w3.org/2000/svg">
<rect width="167" height="85" fill="#1E1E1E"/>
<g id="&#212;&#179;&#212;&#188;&#212;&#189;&#212;&#177;&#213;&#142;&#213;&#136;&#213;&#144;" clip-path="url(#clip0_0_1)">
<rect width="1512" height="5243" transform="translate(-77 -4951)" fill="white"/>
<rect id="Rectangle 68" x="-86" y="-50" width="1544" height="342" fill="#12724F"/>
<path id="logo" fill-rule="evenodd" clip-rule="evenodd" d="M71.0431 0.339269C71.0431 0.51346 71.688 0.850286 72.4755 1.08805C73.2636 1.3258 73.7282 1.18298 73.507 0.771858C73.1219 0.0528026 71.0431 -0.312091 71.0431 0.339269ZM74.6223 1.18216C74.6223 1.43725 76.3138 2.62935 78.3804 3.83135C83.369 6.73234 89.8853 12.7688 94.9355 19.1684C97.1961 22.0331 100.069 25.5978 101.321 27.0896L103.596 29.8015L104.166 27.831C104.631 26.2228 104.237 25.2107 102.027 22.3303C94.6477 12.7135 90.0263 8.22329 83.5702 4.39686C79.4362 1.94662 74.6223 0.217087 74.6223 1.18216ZM49.6969 3.40207C45.5085 5.30826 45.0289 6.24114 48.8952 4.96236C50.2445 4.51573 53.2832 4.15497 55.6476 4.16075C66.209 4.18469 75.1019 9.67213 85.7177 22.7167C89.2682 27.0789 89.3169 27.1061 91.7629 26.0998L94.2289 25.0852L87.4679 17.2276C81.825 10.6686 79.6553 8.7698 74.3474 5.74498C68.2585 2.27436 67.6808 2.1109 60.7465 1.89461C54.7636 1.70803 52.843 1.96973 49.6969 3.40207ZM44.749 8.24971C41.6273 9.8843 36.683 14.0393 36.683 15.0291C36.683 15.3362 38.4841 14.3373 40.6845 12.8092C50.4772 6.00915 62.1109 9.10167 73.5392 21.5427C76.958 25.2643 78.205 25.9264 81.3926 25.7101C82.5523 25.6317 82.243 24.963 79.603 21.8424C75.2744 16.7248 67.4933 10.8617 61.9506 8.54195C56.1258 6.10327 49.077 5.98357 44.749 8.24971ZM2.32513 15.8142C2.3237 16.099 2.80617 16.7942 3.39673 17.3597C4.25717 18.1827 4.47049 20.6701 4.47049 29.8709C4.47049 43.6196 5.17845 46.3539 9.25297 48.3467C13.1264 50.2397 21.6405 49.7345 23.836 47.4799C27.1846 44.0415 28.0601 40.0764 28.0773 28.2726C28.0902 19.2997 28.2877 17.2218 29.1668 16.833C31.2921 15.8918 30.1682 15.2273 26.3034 15.1398C22.5174 15.0547 21.1924 15.8382 23.4401 16.833C24.3263 17.2251 24.5138 19.3946 24.5138 29.2369C24.5138 35.7975 24.3134 41.7671 24.0693 42.5018C23.0034 45.705 16.5645 47.3074 12.772 45.3145C10.1449 43.9342 9.48133 40.6121 9.48133 28.8406C9.48133 19.09 9.59515 18.1869 10.9653 17.0798C11.8915 16.3319 12.1614 15.6755 11.6832 15.3346C10.7412 14.6626 2.32799 15.0943 2.32513 15.8142ZM56.8968 19.9701C54.8187 22.3666 56.8073 26.2211 59.5962 25.1999C60.7816 24.7665 61.0558 24.0912 60.8832 22.0364C60.6434 19.1825 58.5296 18.087 56.8968 19.9701ZM161.439 20.538C160.235 20.9442 160.016 21.376 160.533 22.313C161.455 23.9847 161.446 46.8343 160.522 47.4923C158.846 48.6869 160.052 49.5562 163.386 49.5562C166.719 49.5562 167.926 48.6869 166.249 47.4923C165.819 47.186 165.533 41.5673 165.533 33.4092C165.533 18.6228 165.686 19.1032 161.439 20.538ZM42.676 28.3106C41.8378 28.8712 40.4906 29.7941 39.6817 30.3613C38.4089 31.2537 38.1498 31.1711 37.7568 29.7421C37.4189 28.5145 36.6737 28.0918 34.8455 28.0918C33.494 28.0918 32.388 28.4633 32.388 28.9174C32.388 29.3714 32.7101 29.7429 33.1039 29.7429C33.5355 29.7429 33.8197 33.1665 33.8197 38.3625C33.8197 43.2184 33.5069 47.205 33.1039 47.4923C31.4274 48.6869 32.6336 49.5562 35.9672 49.5562C39.3008 49.5562 40.507 48.6869 38.8305 47.4923C37.6251 46.6329 37.9629 36.1393 39.265 33.9954C40.7096 31.6169 43.1033 30.5338 44.7362 31.5204C45.7949 32.1602 45.9889 33.4885 45.9889 40.0912C45.9889 44.7498 45.6997 47.9051 45.273 47.9051C44.8793 47.9051 44.5572 48.2766 44.5572 48.7306C44.5572 49.188 46.3912 49.5446 48.6733 49.5298C52.1322 49.5075 52.6003 49.3382 51.606 48.4656C50.6654 47.6401 50.3719 45.6018 50.1744 38.5177C49.9603 30.8467 49.7327 29.4441 48.5365 28.4369C46.835 27.0029 44.6975 26.9575 42.676 28.3106ZM91.9869 27.8483C89.7356 28.3486 86.2073 32.6547 85.4857 35.7818C84.8272 38.635 85.422 42.0915 87.0706 44.9934C88.6934 47.8498 92.5854 49.5562 97.476 49.5562C102.178 49.5562 102.165 49.5686 103.563 43.7773L104.061 41.7134L102.764 43.4743C100.013 47.2075 96.6027 48.005 93.2268 45.705C91.0628 44.2305 89.2188 40.5932 90.1573 39.6512C90.4715 39.3358 93.5475 38.2247 96.9921 37.1828C100.437 36.1401 103.256 34.8655 103.256 34.3495C103.256 32.525 100.89 29.5531 98.5318 28.4171C96.1502 27.2696 95.0271 27.1722 91.9869 27.8483ZM116.141 27.8491C115.55 28.0984 114.342 29.0627 113.456 29.9923L111.846 31.6822V29.8866C111.846 28.3321 111.448 28.0918 108.871 28.0918C106.035 28.0918 105.952 28.162 107.082 29.6018C108.735 31.7078 108.828 46.883 107.193 47.6062C104.911 48.6167 106.291 49.5562 110.056 49.5562C113.648 49.5562 115.3 48.5465 113.098 47.6979C111.726 47.1687 112.161 35.9362 113.656 33.306C114.603 31.6384 115.246 31.3115 116.848 31.6813C118.473 32.0561 118.93 31.8101 119.252 30.3877C119.902 27.5247 118.882 26.6934 116.141 27.8491ZM124.924 27.8111C124.046 28.0266 122.671 29.1642 121.869 30.3406C119.197 34.2587 121.446 37.8457 127.941 40.0235C132.219 41.4575 132.911 42.189 132.253 44.5814C131.202 48.3988 123.514 47.2983 121.509 43.0442C120.509 40.9209 120.492 40.9465 120.464 44.7498L120.436 48.6117L124.363 49.1781C129.442 49.9095 132.729 49.1624 134.555 46.8608C138.213 42.2509 136.509 38.048 130.112 35.9032C125.338 34.3025 123.824 32.549 125.789 30.8921C127.43 29.5085 128.143 29.4738 131.037 30.6378C132.261 31.1299 133.458 32.2444 133.698 33.1145C134.453 35.8611 135.159 34.83 134.875 31.394C134.65 28.6697 134.334 28.0902 133.067 28.0828C132.222 28.0778 130.404 27.9267 129.026 27.7468C127.648 27.5668 125.802 27.5957 124.924 27.8111ZM143.879 28.3436C140.629 29.1568 140.479 29.3186 140.479 32.0182V34.8432L142.725 32.6637C144.502 30.9383 145.584 30.5363 147.914 30.7328C150.453 30.9474 150.887 31.2653 151.065 33.0451C151.252 34.9224 150.864 35.2452 146.77 36.6173C141.23 38.474 139.047 40.641 139.047 44.2875C139.047 49.3003 144.808 51.2874 149.591 47.9241C151.891 46.3068 151.907 46.3068 152.659 47.9274C153.188 49.0674 154.159 49.5562 155.894 49.5562C158.661 49.5562 158.979 49.0088 157.122 47.4436C156.116 46.5949 155.799 44.7118 155.512 37.8796C155.173 29.823 155.058 29.317 153.364 28.3312C151.306 27.135 148.701 27.1383 143.879 28.3436ZM55.5417 29.6018C57.2525 31.7812 57.2525 45.8668 55.5417 48.0462C54.4071 49.4918 54.5288 49.5562 58.405 49.5562C60.6313 49.5562 62.4531 49.1847 62.4531 48.7306C62.4531 48.2766 62.1309 47.9051 61.7372 47.9051C61.2999 47.9051 61.0214 44.0522 61.0214 37.9985V28.0918H57.6892C54.5066 28.0918 54.41 28.1595 55.5417 29.6018ZM64.4839 28.8167C65.713 29.7157 71.0409 46.9516 70.5477 48.4342C70.27 49.2672 70.9307 49.5562 73.114 49.5562C75.4884 49.5562 76.0539 49.2648 76.0539 48.0413C76.0539 46.2639 81.3862 30.8731 82.5737 29.2228C83.2373 28.3007 82.9123 28.0918 80.8171 28.0918C78.8586 28.0918 78.3417 28.3783 78.6467 29.2955C78.8671 29.9584 77.9902 33.7304 76.6982 37.679L74.3488 44.858L72.3137 37.92C71.1948 34.1035 70.421 30.3307 70.5942 29.5365C70.8641 28.299 70.3788 28.0935 67.2177 28.1042C64.9213 28.1125 63.8883 28.3816 64.4839 28.8167ZM83.621 31.0399C82.3769 32.4747 82.1915 33.5562 83.0813 34.1902C83.4027 34.4189 84.2259 33.5124 84.9109 32.175C86.2431 29.5737 85.4772 28.9 83.621 31.0399ZM97.0744 31.4543C98.1116 32.3946 98.9606 33.4653 98.9606 33.8327C98.9606 34.2001 97.4309 34.9324 95.5604 35.4615C93.6899 35.9899 91.5968 36.6157 90.9075 36.8534C88.9862 37.5139 89.3169 34.1852 91.4121 31.7697C93.5554 29.2971 94.6305 29.2369 97.0744 31.4543ZM104.698 31.9645C104.704 32.3319 105.022 33.1896 105.403 33.8707C106.001 34.9381 106.098 34.9158 106.108 33.713C106.114 32.9453 105.797 32.0875 105.403 31.8068C105.009 31.5261 104.692 31.5971 104.698 31.9645ZM93.8066 33.2103C94.4745 33.9805 94.8567 33.9805 95.5246 33.2103C96.1925 32.44 96.0021 32.2196 94.6656 32.2196C93.3291 32.2196 93.1387 32.44 93.8066 33.2103ZM100.571 38.1438C97.8754 38.9866 97.7043 39.6553 99.6614 41.6978C100.992 43.0872 101.107 43.0905 101.55 41.7564C101.81 40.9762 102.651 40.0689 103.418 39.742C105.851 38.7043 103.321 37.2835 100.571 38.1438ZM151.217 40.0995C151.217 44.9719 146.629 48.8883 144.201 46.0889C142.27 43.8615 144.294 39.9674 148.354 38.1C151.072 36.8501 151.217 36.9517 151.217 40.0995ZM114.012 41.7522C114.002 43.135 114.556 45.1618 115.246 46.2548C117.46 49.7683 122.892 55.378 124.552 55.8659C125.438 56.1267 126.162 56.6122 126.162 56.9457C126.162 57.5805 130.24 60.0721 135.11 62.4117C136.84 63.243 140.871 63.9546 145.295 64.2089C151.678 64.5771 153.165 64.3946 156.887 62.7889C160.765 61.1164 166.965 55.4151 166.965 53.5213C166.965 53.1572 165.381 53.8788 163.444 55.1254C158.589 58.2526 161.097 57.2128 155.01 58.6752C146.639 60.6879 134.576 58.3541 127.783 53.409C126.137 52.2112 123.562 51.2007 121.774 51.0529C118.768 50.8044 118.637 50.6822 118.428 47.9051C118.299 46.2061 117.348 43.8252 116.121 42.1262L114.032 39.2368L114.012 41.7522ZM91.8023 41.2404C91.8023 42.1477 95.2805 45.4284 96.2426 45.4284C96.6098 45.4284 96.2225 44.3139 95.3814 42.9518C93.9326 40.6047 91.8023 39.5868 91.8023 41.2404ZM105.156 44.0811C104.86 45.383 104.787 46.6436 104.994 46.8822C105.57 47.5468 106.274 44.8885 105.968 43.206C105.767 42.1056 105.553 42.3359 105.156 44.0811ZM95.3814 51.9288C95.3814 52.8155 102.529 62.1822 106.047 65.9054C120.915 81.6412 138.054 87.6529 152.177 82.0862C155.287 80.8611 161.092 75.5297 160.305 74.6224C160.134 74.4243 157.559 75.2044 154.584 76.3561C145.188 79.9943 134.361 78.6948 124.051 72.6923C118.25 69.3158 108.865 60.9777 104.895 55.6743C101.812 51.5565 101.31 51.2073 98.466 51.2073C96.7694 51.2073 95.3814 51.5317 95.3814 51.9288ZM110.794 56.2324C124.456 72.2985 140.431 78.4984 154.175 73.0671C157.688 71.6793 162.857 67.0975 164.217 64.1676C165.003 62.4719 164.973 62.4571 163.313 63.7004C162.369 64.4079 159.697 65.8022 157.376 66.7987C152.487 68.898 143.735 69.305 137.974 67.701C132.181 66.0887 123.286 60.692 118.321 55.7792C114.048 51.5499 113.433 51.2073 110.112 51.2073H106.522L110.794 56.2324ZM0.0630924 58.2245C0.312919 61.8462 1.60715 63.5757 1.60715 60.2883C1.60715 59.3712 2.08461 58.6372 2.6809 58.6372C3.27719 58.6372 3.75465 59.3712 3.75465 60.2883C3.75465 61.1965 4.07678 61.9395 4.47049 61.9395C4.86419 61.9395 5.18632 60.2677 5.18632 58.2245C5.18632 56.1812 4.86419 54.5095 4.47049 54.5095C4.07678 54.5095 3.75465 55.0667 3.75465 55.7478C3.75465 56.4289 3.27146 56.9861 2.6809 56.9861C2.09034 56.9861 1.60715 56.4289 1.60715 55.7478C1.60715 55.0667 1.20199 54.5095 0.707344 54.5095C0.0795577 54.5095 -0.11515 55.6347 0.0630924 58.2245ZM6.90003 55.6785C6.68599 56.3207 6.61584 57.9 6.74326 59.1871C6.92938 61.0586 7.37892 61.5803 8.9874 61.7925C10.0941 61.9386 11.4635 61.615 12.0297 61.0726C13.2824 59.8739 13.3755 56.854 12.2015 55.5001C11.0154 54.1322 7.37391 54.2544 6.90003 55.6785ZM14.2867 55.0222C13.2452 56.2233 13.83 57.8761 15.5659 58.6372C17.9224 59.67 17.8709 60.6161 15.4958 59.9292C14.1471 59.5387 13.7212 59.684 13.9446 60.4584C14.1149 61.0462 15.193 61.5267 16.3412 61.5267C19.3233 61.5267 19.6913 58.3557 16.8587 57.0654L14.8501 56.1507L16.8888 56.6047C18.3591 56.9317 18.8423 56.7608 18.6232 55.9905C18.2861 54.8083 15.0906 54.0951 14.2867 55.0222ZM19.503 58.1749C19.503 60.9711 19.7793 61.9395 20.5768 61.9395C21.1673 61.9395 21.6505 61.4705 21.6505 60.8968C21.6505 60.3238 22.3757 59.4876 23.2611 59.0393C24.1588 58.5852 24.8718 57.4939 24.8718 56.5734C24.8718 55.2616 24.3206 54.8694 22.1874 54.6663L19.503 54.4096V58.1749ZM25.9455 58.2245C25.9455 60.2677 26.2676 61.9395 26.6614 61.9395C27.0551 61.9395 27.3772 60.2677 27.3772 58.2245C27.3772 56.1812 27.0551 54.5095 26.6614 54.5095C26.2676 54.5095 25.9455 56.1812 25.9455 58.2245ZM28.093 55.335C28.093 55.7891 28.5762 56.1606 29.1668 56.1606C29.917 56.1606 30.2405 57.0324 30.2405 59.05C30.2405 60.6392 30.5626 61.9395 30.9564 61.9395C31.3501 61.9395 31.6722 60.7729 31.6722 59.3472C31.6722 57.8472 32.1998 56.2935 32.9249 55.6587C34.0294 54.6911 33.8183 54.559 31.1353 54.5359C29.4617 54.521 28.093 54.881 28.093 55.335ZM34.6136 56.367C32.7101 62.2342 32.7803 62.661 35.3544 60.9075C36.5671 60.082 36.935 60.082 37.1941 60.9075C37.3724 61.4755 38.0088 61.9395 38.6086 61.9395C39.3638 61.9395 39.5435 61.4945 39.192 60.4947C38.9128 59.6997 38.3631 58.0288 37.9715 56.7798C37.109 54.0323 35.4375 53.8268 34.6136 56.367ZM40.2622 58.2245C40.2622 61.9312 40.2679 61.9395 42.8099 61.9395C44.326 61.9395 45.1786 61.6051 44.9151 61.1139C44.6717 60.6598 43.8478 60.2883 43.0833 60.2883C41.9723 60.2883 41.6939 59.7088 41.6939 57.3989C41.6939 55.8097 41.3717 54.5095 40.978 54.5095C40.5843 54.5095 40.2622 56.1812 40.2622 58.2245ZM48.1364 58.2245C48.1364 60.2677 48.4585 61.9395 48.8522 61.9395C49.2459 61.9395 49.568 61.4078 49.568 60.7589C49.568 60.1092 50.2932 59.4587 51.1787 59.3142C52.3319 59.1251 52.8537 58.4053 53.0155 56.7798C53.2252 54.6787 53.052 54.5095 50.689 54.5095C48.1407 54.5095 48.1364 54.5161 48.1364 58.2245ZM54.4336 55.425C53.984 56.9812 54.6991 61.9395 55.3727 61.9395C55.7235 61.9395 56.0106 61.3822 56.0106 60.7011C56.0106 60.02 56.2983 59.4628 56.6498 59.4628C57.0013 59.4628 57.4744 60.02 57.7014 60.7011C57.9276 61.3822 58.6176 61.9395 59.2347 61.9395C60.0829 61.9395 60.1917 61.5861 59.6814 60.4857C59.3106 59.6865 59.1753 58.0148 59.3814 56.7707C59.7329 54.6515 59.5983 54.5095 57.2275 54.5095C55.8366 54.5095 54.5789 54.9214 54.4336 55.425ZM61.0465 56.1069C59.7809 58.8337 61.2906 61.9395 63.8826 61.9395C66.5992 61.9395 68.086 59.0442 66.7967 56.2646C65.7273 53.9605 62.0887 53.8598 61.0465 56.1069ZM68.1797 58.2765C68.1797 62.0063 68.2019 62.0418 70.4339 61.7851C73.1462 61.4738 74.2858 59.6667 73.6401 56.7013C73.2385 54.8546 72.7711 54.5095 70.6716 54.5095C68.1905 54.5095 68.1797 54.526 68.1797 58.2765ZM74.7604 58.0181C74.9737 61.4293 75.0496 61.5267 77.4856 61.5267C79.9216 61.5267 79.9975 61.4293 80.2108 58.0181C80.4663 53.9489 79.1198 53.1704 78.7834 57.1925C78.6402 58.9122 78.1735 59.8756 77.4856 59.8756C76.7977 59.8756 76.3309 58.9122 76.1878 57.1925C75.8513 53.1704 74.5048 53.9489 74.7604 58.0181ZM81.9545 55.4646C79.7634 57.9917 81.6568 62.3159 84.7277 61.7966C87.1529 61.3855 87.2811 59.5181 84.8701 59.7129C83.2846 59.8409 82.8543 59.5231 82.8543 58.2245C82.8543 56.9259 83.2846 56.608 84.8701 56.736C86.1608 56.8408 86.7843 56.5436 86.6046 55.9104C86.2116 54.531 83.029 54.2255 81.9545 55.4646ZM87.5073 55.335C87.5073 55.7891 87.9904 56.1606 88.581 56.1606C89.3312 56.1606 89.6548 57.0324 89.6548 59.05C89.6548 60.6392 89.9769 61.9395 90.3706 61.9395C90.7643 61.9395 91.0864 60.7729 91.0864 59.3472C91.0864 57.8472 91.614 56.2935 92.3391 55.6587C93.4437 54.6911 93.2325 54.559 90.5496 54.5359C88.8759 54.521 87.5073 54.881 87.5073 55.335ZM10.913 58.2245C10.913 59.7377 10.5315 60.2883 9.48133 60.2883C8.4312 60.2883 8.04966 59.7377 8.04966 58.2245C8.04966 56.7112 8.4312 56.1606 9.48133 56.1606C10.5315 56.1606 10.913 56.7112 10.913 58.2245ZM23.0822 56.9861C23.0822 57.4402 22.7601 57.8117 22.3663 57.8117C21.9726 57.8117 21.6505 57.4402 21.6505 56.9861C21.6505 56.5321 21.9726 56.1606 22.3663 56.1606C22.7601 56.1606 23.0822 56.5321 23.0822 56.9861ZM51.7156 56.9861C51.7156 57.4402 51.2324 57.8117 50.6418 57.8117C50.0512 57.8117 49.568 57.4402 49.568 56.9861C49.568 56.5321 50.0512 56.1606 50.6418 56.1606C51.2324 56.1606 51.7156 56.5321 51.7156 56.9861ZM57.8001 56.9861C57.5568 57.4402 57.055 57.8117 56.6842 57.8117C56.3134 57.8117 56.0106 57.4402 56.0106 56.9861C56.0106 56.5321 56.5131 56.1606 57.1265 56.1606C57.74 56.1606 58.0435 56.5321 57.8001 56.9861ZM65.3164 58.2245C65.3164 59.7377 64.9349 60.2883 63.8847 60.2883C62.8346 60.2883 62.4531 59.7377 62.4531 58.2245C62.4531 56.7112 62.8346 56.1606 63.8847 56.1606C64.9349 56.1606 65.3164 56.7112 65.3164 58.2245ZM71.9515 57.1925C72.4168 58.7297 71.7403 60.2883 70.6086 60.2883C70.0223 60.2883 69.6114 59.438 69.6114 58.2245C69.6114 56.0805 71.3795 55.3004 71.9515 57.1925Z" fill="white"/>
</g>
<defs>
<clipPath id="clip0_0_1">
<rect width="1512" height="5243" fill="white" transform="translate(-77 -4951)"/>
</clipPath>
</defs>
</svg>
