<svg width="19" height="20" viewBox="0 0 19 20" fill="none" xmlns="http://www.w3.org/2000/svg">
<path d="M3.20231 14.0449V14.4986H3.65606H14.5461H14.9998V14.0449V5.87738V5.42363H14.5461H3.65606H3.20231V5.87738V14.0449ZM2.74856 4.51613H15.4536C15.5739 4.51613 15.6893 4.56393 15.7744 4.64903C15.8595 4.73412 15.9073 4.84953 15.9073 4.96988V14.9524C15.9073 15.0727 15.8595 15.1881 15.7744 15.2732C15.6893 15.3583 15.5739 15.4061 15.4536 15.4061H2.74856C2.62822 15.4061 2.51281 15.3583 2.42772 15.2732C2.34262 15.1881 2.29481 15.0727 2.29481 14.9524V4.96988C2.29481 4.84954 2.34262 4.73412 2.42771 4.64903C2.51281 4.56393 2.62822 4.51613 2.74856 4.51613Z" fill="white" stroke="white" stroke-width="0.9075"/>
<path d="M2.45221 5.31329L2.45204 5.31314C2.1338 5.03887 2.3276 4.51613 2.74842 4.51613H15.4534C15.8751 4.51613 16.0688 5.04123 15.7473 5.31504L9.35404 10.76C9.354 10.76 9.35397 10.76 9.35394 10.76C9.27151 10.8302 9.16675 10.8685 9.05854 10.8682C8.95028 10.8678 8.84571 10.8288 8.76371 10.7581L2.45221 5.31329ZM5.18959 5.42363H3.9688L4.89323 6.22097L8.76826 9.5633L9.06283 9.81738L9.35892 9.56506L13.2811 6.22274L14.2189 5.42363H12.9868H5.18959Z" fill="white" stroke="white" stroke-width="0.9075"/>
</svg>
