<svg width="51" height="50" viewBox="0 0 51 50" fill="none" xmlns="http://www.w3.org/2000/svg">
<path d="M25.3099 14.0706C19.1611 14.0706 14.2014 19.0303 14.2014 25.1791C14.2014 31.328 19.1611 36.2876 25.3099 36.2876C31.4587 36.2876 36.4184 31.328 36.4184 25.1791C36.4184 19.0303 31.4587 14.0706 25.3099 14.0706ZM25.3099 32.4011C21.3364 32.4011 18.0879 29.1623 18.0879 25.1791C18.0879 21.1959 21.3267 17.9572 25.3099 17.9572C29.2931 17.9572 32.5319 21.1959 32.5319 25.1791C32.5319 29.1623 29.2834 32.4011 25.3099 32.4011ZM39.4638 13.6162C39.4638 15.0568 38.3036 16.2073 36.8728 16.2073C35.4323 16.2073 34.2818 15.0471 34.2818 13.6162C34.2818 12.1854 35.4419 11.0252 36.8728 11.0252C38.3036 11.0252 39.4638 12.1854 39.4638 13.6162ZM46.8211 16.2459C46.6568 12.7751 45.864 9.70071 43.3213 7.1677C40.7883 4.63469 37.7139 3.84192 34.2431 3.6679C30.6659 3.46487 19.9442 3.46487 16.367 3.6679C12.9059 3.83225 9.83147 4.62502 7.28879 7.15803C4.74612 9.69104 3.96301 12.7655 3.78899 16.2363C3.58596 19.8134 3.58596 30.5352 3.78899 34.1123C3.95334 37.5831 4.74612 40.6575 7.28879 43.1905C9.83147 45.7236 12.8962 46.5163 16.367 46.6903C19.9442 46.8934 30.6659 46.8934 34.2431 46.6903C37.7139 46.526 40.7883 45.7332 43.3213 43.1905C45.8543 40.6575 46.6471 37.5831 46.8211 34.1123C47.0241 30.5352 47.0241 19.8231 46.8211 16.2459ZM42.1998 37.9505C41.4457 39.8454 39.9859 41.3053 38.0813 42.0691C35.2292 43.2002 28.4616 42.9392 25.3099 42.9392C22.1581 42.9392 15.3809 43.1905 12.5385 42.0691C10.6436 41.315 9.18372 39.8551 8.41995 37.9505C7.28879 35.0985 7.54983 28.3309 7.54983 25.1791C7.54983 22.0274 7.29846 15.2501 8.41995 12.4077C9.17405 10.5128 10.6339 9.05295 12.5385 8.28918C15.3906 7.15803 22.1581 7.41907 25.3099 7.41907C28.4616 7.41907 35.2389 7.1677 38.0813 8.28918C39.9762 9.04329 41.4361 10.5031 42.1998 12.4077C43.331 15.2598 43.0699 22.0274 43.0699 25.1791C43.0699 28.3309 43.331 35.1081 42.1998 37.9505Z" fill="white"/>
</svg>
