<svg width="20" height="21" viewBox="0 0 20 21" fill="none" xmlns="http://www.w3.org/2000/svg">
<path d="M10.0992 18.0364C9.05719 17.1475 8.09133 16.1731 7.21172 15.1233C5.89172 13.5467 4.32422 11.1988 4.32422 8.96137C4.32365 7.81871 4.66206 6.70156 5.29664 5.75131C5.93122 4.80106 6.83343 4.06042 7.8891 3.62312C8.94477 3.18582 10.1064 3.07152 11.2271 3.29468C12.3477 3.51785 13.377 4.06844 14.1846 4.87679C14.7223 5.4121 15.1485 6.04873 15.4385 6.74985C15.7285 7.45097 15.8766 8.20264 15.8742 8.96137C15.8742 11.1988 14.3067 13.5467 12.9867 15.1233C12.1071 16.1731 11.1412 17.1475 10.0992 18.0364ZM10.0992 6.48637C9.44281 6.48637 8.81328 6.74713 8.34913 7.21128C7.88498 7.67543 7.62422 8.30496 7.62422 8.96137C7.62422 9.61778 7.88498 10.2473 8.34913 10.7115C8.81328 11.1756 9.44281 11.4364 10.0992 11.4364C10.7556 11.4364 11.3852 11.1756 11.8493 10.7115C12.3135 10.2473 12.5742 9.61778 12.5742 8.96137C12.5742 8.30496 12.3135 7.67543 11.8493 7.21128C11.3852 6.74713 10.7556 6.48637 10.0992 6.48637Z" fill="white"/>
</svg>
