<svg width="20" height="21" viewBox="0 0 20 21" fill="none" xmlns="http://www.w3.org/2000/svg">
<path d="M6.61175 2.42452L7.49945 2.14072C8.33187 1.87507 9.22122 2.30489 9.57762 3.14474L10.2871 4.81784C10.5957 5.54632 10.4241 6.40349 9.86307 6.93644L8.2997 8.41979C8.39622 9.30749 8.69487 10.1812 9.19482 11.0408C9.66958 11.8725 10.3064 12.6005 11.0676 13.1817L12.9453 12.5547C13.6564 12.3179 14.4319 12.591 14.8675 13.232L15.8847 14.7253C16.3921 15.4711 16.3005 16.499 15.6711 17.131L14.997 17.8083C14.3255 18.4823 13.366 18.7273 12.4791 18.4501C10.3836 17.7967 8.45892 15.8572 6.70167 12.6314C4.94195 9.40072 4.32072 6.65842 4.83882 4.40782C5.05662 3.46072 5.73065 2.70584 6.61175 2.42452Z" fill="white"/>
</svg>
