<svg width="45" height="44" viewBox="0 0 45 44" fill="none" xmlns="http://www.w3.org/2000/svg">
<path d="M39.5625 0.417969H5.53125C2.96924 0.417969 0.890625 2.49658 0.890625 5.05859V39.0898C0.890625 41.6519 2.96924 43.7305 5.53125 43.7305H39.5625C42.1245 43.7305 44.2031 41.6519 44.2031 39.0898V5.05859C44.2031 2.49658 42.1245 0.417969 39.5625 0.417969ZM34.8349 15.7707C34.8542 16.0414 34.8542 16.3218 34.8542 16.5925C34.8542 24.9746 28.4733 34.6329 16.8138 34.6329C13.2173 34.6329 9.88183 33.5888 7.07812 31.7905C7.59053 31.8485 8.08359 31.8679 8.60566 31.8679C11.5737 31.8679 14.3001 30.8624 16.4754 29.1608C13.691 29.1028 11.3514 27.2756 10.5489 24.7619C11.5254 24.9069 12.4052 24.9069 13.4106 24.6459C10.5103 24.0562 8.33496 21.5038 8.33496 18.4197V18.3424C9.17607 18.8161 10.1622 19.1061 11.1967 19.1448C10.327 18.5663 9.61402 17.7815 9.12142 16.8604C8.62883 15.9393 8.37192 14.9106 8.37363 13.8661C8.37363 12.6866 8.68301 11.6038 9.23408 10.666C12.3568 14.5139 17.0458 17.0275 22.3052 17.2982C21.4061 12.996 24.6255 9.50586 28.4927 9.50586C30.3199 9.50586 31.9635 10.2696 33.1236 11.5071C34.5545 11.2364 35.9273 10.7047 37.1455 9.97959C36.6718 11.4491 35.676 12.6866 34.3611 13.4697C35.6373 13.3344 36.8748 12.9767 38.0156 12.4836C37.1552 13.7501 36.0724 14.8716 34.8349 15.7707Z" fill="white"/>
</svg>
